<svg width="24" height="24" fill="none" xmlns="http://www.w3.org/2000/svg"><path fill-rule="evenodd" clip-rule="evenodd" d="M12 15.5a.997.997 0 0 1-.707-.293l-4-4a.999.999 0 1 1 1.414-1.414l3.305 3.305 3.293-3.18a1 1 0 0 1 1.39 1.439l-4 3.862A.997.997 0 0 1 12 15.5Z" fill="#000"/><mask id="a" style="mask-type:alpha" maskUnits="userSpaceOnUse" x="6" y="9" width="11" height="7"><path fill-rule="evenodd" clip-rule="evenodd" d="M12 15.5a.997.997 0 0 1-.707-.293l-4-4a.999.999 0 1 1 1.414-1.414l3.305 3.305 3.293-3.18a1 1 0 0 1 1.39 1.439l-4 3.862A.997.997 0 0 1 12 15.5Z" fill="#fff"/></mask><g mask="url(#a)"><path fill="#000" d="M0 0h24v24H0z"/></g></svg>