<svg width="50" height="50" fill="none" xmlns="http://www.w3.org/2000/svg"><path fill="#404040" d="M0 0h50v50H0z"/><path fill="#FFD845" d="M-1569-50H351v1715h-1920z"/><path fill-rule="evenodd" clip-rule="evenodd" d="M15.041 12.5c-1.8 0-3.488.696-4.75 1.96-2.62 2.625-2.62 6.898.002 9.527L25 38.72l14.709-14.732c2.623-2.629 2.623-6.902 0-9.527-2.525-2.53-6.975-2.527-9.5 0l-3.734 3.74c-.783.785-2.166.785-2.95 0l-3.733-3.742a6.667 6.667 0 0 0-4.75-1.958m9.958 31.25a2.072 2.072 0 0 1-1.473-.612L7.343 26.929c-4.242-4.25-4.242-11.164 0-15.414a10.812 10.812 0 0 1 7.698-3.182c2.915 0 5.65 1.132 7.698 3.182l2.26 2.264 2.26-2.262a10.806 10.806 0 0 1 7.7-3.184c2.913 0 5.649 1.132 7.697 3.182 4.243 4.25 4.243 11.164.002 15.414L26.474 43.14c-.391.392-.92.611-1.475.611" fill="#000"/><mask id="a" style="mask-type:alpha" maskUnits="userSpaceOnUse" x="4" y="8" width="42" height="36"><path fill-rule="evenodd" clip-rule="evenodd" d="M15.041 12.5c-1.8 0-3.488.696-4.75 1.96-2.62 2.625-2.62 6.898.002 9.527L25 38.72l14.709-14.732c2.623-2.629 2.623-6.902 0-9.527-2.525-2.53-6.975-2.527-9.5 0l-3.734 3.74c-.783.785-2.166.785-2.95 0l-3.733-3.742a6.667 6.667 0 0 0-4.75-1.958m9.958 31.25a2.072 2.072 0 0 1-1.473-.612L7.343 26.929c-4.242-4.25-4.242-11.164 0-15.414a10.812 10.812 0 0 1 7.698-3.182c2.915 0 5.65 1.132 7.698 3.182l2.26 2.264 2.26-2.262a10.806 10.806 0 0 1 7.7-3.184c2.913 0 5.649 1.132 7.697 3.182 4.243 4.25 4.243 11.164.002 15.414L26.474 43.14c-.391.392-.92.611-1.475.611" fill="#fff"/></mask><g mask="url(#a)"><path fill="#000" d="M0 0h50v50H0z"/></g></svg>