<svg width="24" height="24" fill="none" xmlns="http://www.w3.org/2000/svg"><path fill-rule="evenodd" clip-rule="evenodd" d="M5 11c0-3.309 2.691-6 6-6s6 2.691 6 6-2.691 6-6 6-6-2.691-6-6Zm15.707 8.293-3.395-3.396A7.952 7.952 0 0 0 19 11c0-4.411-3.589-8-8-8s-8 3.589-8 8 3.589 8 8 8a7.952 7.952 0 0 0 4.897-1.688l3.396 3.395a.997.997 0 0 0 1.414 0 .999.999 0 0 0 0-1.414Z" fill="#000"/><mask id="a" style="mask-type:alpha" maskUnits="userSpaceOnUse" x="3" y="3" width="19" height="18"><path fill-rule="evenodd" clip-rule="evenodd" d="M5 11c0-3.309 2.691-6 6-6s6 2.691 6 6-2.691 6-6 6-6-2.691-6-6Zm15.707 8.293-3.395-3.396A7.952 7.952 0 0 0 19 11c0-4.411-3.589-8-8-8s-8 3.589-8 8 3.589 8 8 8a7.952 7.952 0 0 0 4.897-1.688l3.396 3.395a.997.997 0 0 0 1.414 0 .999.999 0 0 0 0-1.414Z" fill="#fff"/></mask><g mask="url(#a)"><path fill="#000" d="M0 0h24v24H0z"/></g></svg>